<?xml version="1.0" encoding="utf-8"?>
<!-- Generator: Adobe Illustrator 16.0.0, SVG Export Plug-In . SVG Version: 6.00 Build 0)  -->
<!DOCTYPE svg PUBLIC "-//W3C//DTD SVG 1.1//EN" "http://www.w3.org/Graphics/SVG/1.1/DTD/svg11.dtd">
<svg version="1.1" id="Layer_1" xmlns="http://www.w3.org/2000/svg" xmlns:xlink="http://www.w3.org/1999/xlink" x="0px" y="0px"
	 width="592.5px" height="122.5px" viewBox="0 0 592.5 122.5" enable-background="new 0 0 592.5 122.5" xml:space="preserve">
<g>
	<g>
		<path fill="#772B90" d="M500.062,94.933c-6.72,0-11.74-4.701-12-12.42v-0.01V70.112c0-0.211-0.02-0.41-0.02-0.609
			c-0.131-4.762-1.69-8.631-4.271-11.372v-0.01c-2.81-2.99-6.819-4.65-11.489-4.65c-6.221,0-11.601,3.67-13.811,8.112v-7h-4.27
			v44.27h4.27V71.812c0-8.609,5.54-14.411,13.3-14.411c6.729,0,11.74,4.702,12,12.42v0.012v12.389c0,0.211,0.021,0.4,0.03,0.611
			v0.01c0.12,4.75,1.68,8.619,4.26,11.359c2.82,2.99,6.83,4.65,11.49,4.65c6.229,0,11.598-3.668,13.818-8.098
			C513.37,90.755,507.679,94.933,500.062,94.933z"/>
	</g>
	<g>
		<path fill="#772B90" d="M9.368,54.854h4.211v8.084c1.011-1.684,5.727-9.18,16.255-9.18c12.465,0,21.309,9.518,21.309,22.825
			c0,13.477-8.591,23.078-20.887,23.078c-9.938,0-15.245-6.738-16.676-9.434v24.09H9.368V54.854z M30.171,95.702
			c9.517,0,16.592-7.916,16.592-19.119c0-11.453-7.412-18.866-16.761-18.866c-10.191,0-16.591,8.59-16.591,18.866
			C13.411,88.712,21.075,95.702,30.171,95.702z"/>
		<path fill="#772B90" d="M60.235,83.237V54.854h4.211v28.047c0,8,5.054,12.885,11.876,12.885c7.664,0,13.138-5.727,13.138-14.232
			v-26.7h4.211v43.711H89.46v-6.906c-2.189,4.379-7.496,8.002-13.644,8.002C66.804,99.661,60.235,93.429,60.235,83.237z"/>
		<path fill="#772B90" d="M123.568,57.885c-10.359,0-13.477,8.506-13.477,17.604v23.076h-4.211V54.854h4.211v7.833
			c1.348-4.379,6.401-8.928,13.477-8.928V57.885z"/>
		<path fill="#772B90" d="M132.493,54.854h4.211v8.084c1.011-1.684,5.727-9.18,16.255-9.18c12.466,0,21.31,9.518,21.31,22.825
			c0,13.477-8.592,23.078-20.888,23.078c-9.938,0-15.245-6.738-16.677-9.434v24.09h-4.211V54.854z M153.296,95.702
			c9.517,0,16.592-7.916,16.592-19.119c0-11.453-7.412-18.866-16.76-18.866c-10.191,0-16.592,8.59-16.592,18.866
			C136.536,88.712,144.2,95.702,153.296,95.702z"/>
		<path fill="#772B90" d="M183.781,37.672h4.211v60.893h-4.211V37.672z"/>
		<path fill="#772B90" d="M218.564,53.758c12.55,0,20.551,9.35,20.551,21.899v1.768h-37.228c0,11.625,7.412,18.361,17.855,18.361
			c8.086,0,12.549-3.957,15.077-7.496l2.779,1.938c-2.864,4.633-8.423,9.434-17.856,9.434c-12.886,0-22.234-9.182-22.234-22.826
			C197.509,62.517,207.447,53.758,218.564,53.758z M234.735,73.722c-0.504-10.951-8.001-16.088-16.254-16.088
			c-7.917,0-15.498,5.391-16.34,16.088H234.735z"/>
		<path fill="#772B90" d="M281.645,64.118c-1.601-1.852-6.569-6.401-14.402-6.401c-10.022,0-17.434,8.252-17.434,18.95
			c0,10.445,7.664,19.035,17.518,19.035c8.085,0,12.887-4.883,14.571-6.738l1.517,3.707c-1.348,1.768-7.076,6.99-16.171,6.99
			c-12.718,0-21.898-10.191-21.898-22.994s9.433-22.909,21.898-22.909c8.675,0,14.15,4.463,16.087,6.655L281.645,64.118z"/>
		<path fill="#772B90" d="M310.275,57.885c-10.358,0-13.475,8.506-13.475,17.604v23.076h-4.211V54.854h4.211v7.833
			c1.348-4.379,6.402-8.928,13.475-8.928V57.885z"/>
		<path fill="#772B90" d="M332.931,70.856c5.979,0,10.611,2.525,12.549,4.715v-6.65c0-7.328-4.801-11.288-11.959-11.288
			c-5.812,0-10.444,2.19-13.477,4.042l-1.77-3.286c2.359-1.516,8.086-4.631,15.498-4.631c10.865,0,15.918,6.315,15.918,15.413
			v29.395h-3.453l-0.758-4.127c-2.357,2.695-6.232,5.223-12.549,5.223c-9.939,0-16.762-6.4-16.762-14.488
			C316.169,76.921,323.245,70.856,332.931,70.856z M333.183,95.786c7.412,0,12.549-4.549,12.549-10.613
			c0-6.232-4.969-10.441-12.633-10.441c-7.748,0-12.635,4.545-12.635,10.441C320.464,90.985,325.351,95.786,333.183,95.786z"/>
		<path fill="#772B90" d="M367.628,113.642l6.4-15.16l-18.277-43.627h4.633l15.834,38.489l15.328-38.489h4.549l-24.088,58.788
			H367.628z"/>
		<path fill="#772B90" d="M422.369,53.758c12.888,0,22.404,9.94,22.404,22.909c0,13.141-9.687,22.994-22.487,22.994
			c-12.887,0-22.404-9.688-22.404-22.994C399.882,63.528,409.483,53.758,422.369,53.758z M422.286,95.702
			c10.611,0,18.107-8.086,18.107-19.035c0-10.697-7.412-18.95-18.107-18.95c-10.613,0-18.025,8.252-18.025,18.95
			C404.261,87.616,411.673,95.702,422.286,95.702z"/>
	</g>
	<g>
		<path fill="#772B90" d="M532.699,15.815l4.417-6.383c2.443-3.531,14.627,0.682,27.211,9.393
			c12.594,8.715,20.819,18.627,18.375,22.156l0.01,0.01l-4.418,6.383c-2.438,3.52-14.629-0.684-27.211-9.393
			C538.491,29.264,530.261,19.336,532.699,15.815z"/>
		<path fill="#FFFFFF" d="M528.048,22.534l4.418-6.381c2.443-3.533,14.625,0.684,27.21,9.393
			c12.593,8.715,20.818,18.627,18.374,22.158l0.011,0.006l-4.418,6.383c-2.438,3.521-14.628-0.682-27.211-9.391
			C533.837,35.985,525.611,26.057,528.048,22.534z"/>
		<path fill="#772B90" d="M520.207,89.823l-6.837-4.734l18.418-53.204c-3.457-4.105-4.979-7.557-3.736-9.352
			c2.439-3.523,14.625,0.682,27.215,9.395c12.588,8.711,20.815,18.635,18.373,22.158c-1.244,1.799-5.021,1.59-10.091-0.201
			L520.207,89.823z"/>
	</g>
</g>
</svg>
